<mxfile host="app.diagrams.net" modified="2022-07-18T02:12:17.822Z" agent="5.0 (Macintosh; Intel Mac OS X 10_15_7) AppleWebKit/537.36 (KHTML, like Gecko) Chrome/103.0.0.0 Safari/537.36" etag="xgXQmz_SNQByTlImObr2" version="20.1.1" type="github">
  <diagram id="aSDRHV1LHlVN6_EoaAUK" name="Page-1">
    <mxGraphModel dx="944" dy="533" grid="1" gridSize="10" guides="1" tooltips="1" connect="1" arrows="1" fold="1" page="1" pageScale="1" pageWidth="827" pageHeight="1169" math="0" shadow="0">
      <root>
        <mxCell id="0" />
        <mxCell id="1" parent="0" />
        <mxCell id="Lyp26yXPZbSf8ClD8V3k-5" style="edgeStyle=orthogonalEdgeStyle;rounded=0;orthogonalLoop=1;jettySize=auto;html=1;exitX=1;exitY=0.25;exitDx=0;exitDy=0;entryX=0;entryY=0.25;entryDx=0;entryDy=0;" edge="1" parent="1" source="Lyp26yXPZbSf8ClD8V3k-1" target="Lyp26yXPZbSf8ClD8V3k-2">
          <mxGeometry relative="1" as="geometry">
            <mxPoint x="220" y="155" as="targetPoint" />
          </mxGeometry>
        </mxCell>
        <mxCell id="Lyp26yXPZbSf8ClD8V3k-7" value="创建密钥对/私钥解密（标准接口）" style="edgeLabel;html=1;align=center;verticalAlign=middle;resizable=0;points=[];" vertex="1" connectable="0" parent="Lyp26yXPZbSf8ClD8V3k-5">
          <mxGeometry x="-0.0515" y="4" relative="1" as="geometry">
            <mxPoint as="offset" />
          </mxGeometry>
        </mxCell>
        <mxCell id="Lyp26yXPZbSf8ClD8V3k-1" value="TMF后台" style="rounded=1;whiteSpace=wrap;html=1;" vertex="1" parent="1">
          <mxGeometry x="50" y="110" width="100" height="180" as="geometry" />
        </mxCell>
        <mxCell id="Lyp26yXPZbSf8ClD8V3k-6" style="edgeStyle=orthogonalEdgeStyle;rounded=0;orthogonalLoop=1;jettySize=auto;html=1;exitX=1;exitY=0.25;exitDx=0;exitDy=0;entryX=0;entryY=0.25;entryDx=0;entryDy=0;" edge="1" parent="1" source="Lyp26yXPZbSf8ClD8V3k-2" target="Lyp26yXPZbSf8ClD8V3k-3">
          <mxGeometry relative="1" as="geometry" />
        </mxCell>
        <mxCell id="Lyp26yXPZbSf8ClD8V3k-8" value="创建密钥对/私钥解密（适配）" style="edgeLabel;html=1;align=center;verticalAlign=middle;resizable=0;points=[];" vertex="1" connectable="0" parent="Lyp26yXPZbSf8ClD8V3k-6">
          <mxGeometry x="-0.2169" y="1" relative="1" as="geometry">
            <mxPoint x="11" as="offset" />
          </mxGeometry>
        </mxCell>
        <mxCell id="Lyp26yXPZbSf8ClD8V3k-11" style="edgeStyle=orthogonalEdgeStyle;rounded=0;orthogonalLoop=1;jettySize=auto;html=1;exitX=0;exitY=0.75;exitDx=0;exitDy=0;entryX=1;entryY=0.75;entryDx=0;entryDy=0;dashed=1;fontFamily=Helvetica;" edge="1" parent="1" source="Lyp26yXPZbSf8ClD8V3k-2" target="Lyp26yXPZbSf8ClD8V3k-1">
          <mxGeometry relative="1" as="geometry" />
        </mxCell>
        <mxCell id="Lyp26yXPZbSf8ClD8V3k-2" value="密管平台适配服务" style="rounded=1;whiteSpace=wrap;html=1;" vertex="1" parent="1">
          <mxGeometry x="364" y="110" width="100" height="180" as="geometry" />
        </mxCell>
        <mxCell id="Lyp26yXPZbSf8ClD8V3k-10" style="edgeStyle=orthogonalEdgeStyle;rounded=0;orthogonalLoop=1;jettySize=auto;html=1;exitX=0;exitY=0.75;exitDx=0;exitDy=0;entryX=1;entryY=0.75;entryDx=0;entryDy=0;fontFamily=Helvetica;dashed=1;" edge="1" parent="1" source="Lyp26yXPZbSf8ClD8V3k-3" target="Lyp26yXPZbSf8ClD8V3k-2">
          <mxGeometry relative="1" as="geometry" />
        </mxCell>
        <mxCell id="Lyp26yXPZbSf8ClD8V3k-3" value="密管平台" style="rounded=1;whiteSpace=wrap;html=1;" vertex="1" parent="1">
          <mxGeometry x="680" y="110" width="100" height="180" as="geometry" />
        </mxCell>
      </root>
    </mxGraphModel>
  </diagram>
</mxfile>
